<?xml version="1.0" standalone="no"?>
<!DOCTYPE svg PUBLIC "-//W3C//DTD SVG 20010904//EN"
 "http://www.w3.org/TR/2001/REC-SVG-20010904/DTD/svg10.dtd">
<svg version="1.0" xmlns="http://www.w3.org/2000/svg"
 width="160.000000pt" height="160.000000pt" viewBox="0 0 160.000000 160.000000"
 preserveAspectRatio="xMidYMid meet">
<metadata>
Created by potrace 1.11, written by Peter Selinger 2001-2013
</metadata>
<g transform="translate(0.000000,160.000000) scale(0.100000,-0.100000)"
fill="#000000" stroke="none">
<path d="M0 800 l0 -800 800 0 800 0 0 800 0 800 -800 0 -800 0 0 -800z m870
470 c44 -44 21 -94 -93 -202 -50 -49 -92 -88 -94 -88 -2 0 -3 12 -3 28 0 38
22 66 88 111 94 64 121 104 96 139 -11 17 -28 22 -77 25 l-62 3 63 2 c50 2 66
-2 82 -18z m-153 4 c-3 -3 -12 -4 -19 -1 -8 3 -5 6 6 6 11 1 17 -2 13 -5z
m-128 -52 c-51 -33 -96 -83 -116 -129 -23 -57 -16 -102 30 -188 40 -74 46 -80
73 -78 27 2 27 2 7 -7 -27 -11 -27 -13 -8 -65 8 -22 14 -67 15 -101 0 -50 -5
-68 -29 -106 -63 -99 -255 -188 -406 -188 -236 0 -171 213 105 347 58 28 134
61 170 73 36 13 66 24 68 26 2 1 -15 37 -38 81 -38 71 -42 83 -38 136 3 43 12
68 34 100 28 39 142 127 167 127 6 0 -9 -13 -34 -28z m737 -397 c55 -68 70
-81 72 -64 6 33 -5 49 -33 49 -23 0 -25 3 -25 50 l0 50 110 0 110 0 0 -50 c0
-47 -2 -50 -25 -50 l-25 0 0 -130 0 -130 -58 0 -58 0 -47 63 c-26 34 -58 76
-72 92 l-25 30 0 -42 c0 -39 2 -43 25 -43 23 0 25 -3 25 -50 l0 -50 -105 0
-105 0 0 50 c0 47 2 50 25 50 25 0 25 1 25 85 0 84 0 85 -25 85 -23 0 -25 4
-25 45 l0 45 83 0 83 0 70 -85z m-563 44 c-18 -5 -49 -26 -69 -46 -22 -21 -32
-27 -25 -15 15 29 80 72 106 71 13 0 8 -4 -12 -10z m217 7 c0 -2 -18 -6 -39
-8 -22 -2 -37 0 -35 4 5 8 74 11 74 4z m-70 -120 c0 -2 -9 -6 -20 -9 -11 -3
-20 -1 -20 4 0 5 9 9 20 9 11 0 20 -2 20 -4z m123 -3 c-7 -2 -19 -2 -25 0 -7
3 -2 5 12 5 14 0 19 -2 13 -5z m-136 -99 c-3 -3 -12 -4 -19 -1 -8 3 -5 6 6 6
11 1 17 -2 13 -5z m108 -134 c-3 -5 -12 -10 -18 -10 -7 0 -6 4 3 10 19 12 23
12 15 0z m-55 -25 c-14 -8 -29 -14 -35 -14 -5 0 1 6 15 14 14 8 30 14 35 14 6
0 -1 -6 -15 -14z m-143 -11 c-3 -3 -12 -4 -19 -1 -8 3 -5 6 6 6 11 1 17 -2 13
-5z m73 -4 c-8 -5 -19 -10 -25 -10 -5 0 -3 5 5 10 8 5 20 10 25 10 6 0 3 -5
-5 -10z"/>
<path d="M395 756 c-192 -78 -295 -148 -336 -228 -79 -155 100 -210 321 -98
115 58 178 151 166 243 -10 70 -31 117 -53 116 -10 0 -54 -15 -98 -33z"/>
</g>
</svg>
